<?xml version="1.0" encoding="utf-8"?>
<!-- Generator: Adobe Illustrator 15.0.0, SVG Export Plug-In . SVG Version: 6.00 Build 0)  -->
<!DOCTYPE svg PUBLIC "-//W3C//DTD SVG 1.1//EN" "http://www.w3.org/Graphics/SVG/1.1/DTD/svg11.dtd">
<svg version="1.1" id="Layer_1" xmlns="http://www.w3.org/2000/svg" xmlns:xlink="http://www.w3.org/1999/xlink" x="0px" y="0px"
	 width="122.625px" height="28px" viewBox="0 0 122.625 28" enable-background="new 0 0 122.625 28" xml:space="preserve">
<path fill="#FFFFFF" d="M42.8,11.534c-0.448-0.628-1.06-0.941-1.837-0.941c-0.838,0-1.481,0.298-1.929,0.896
	c-0.452,0.597-0.673,1.42-0.673,2.468V20.1h-3.05V1.368h1.522c0.421,0,0.781,0.149,1.079,0.448c0.299,0.298,0.448,0.658,0.448,1.075
	v6.848c0.54-0.896,1.301-1.465,2.289-1.703c0.983-0.241,1.925-0.18,2.824,0.18c0.838,0.356,1.539,0.926,2.109,1.703
	c0.566,0.777,0.849,1.853,0.849,3.23v6.949h-3.004V13.91c0-0.448-0.038-0.861-0.11-1.232C43.241,12.303,43.068,11.921,42.8,11.534"
	/>
<path fill="#FFFFFF" d="M32.575,16.421h2.243c-0.33,1.255-0.957,2.212-1.883,2.87c-0.926,0.689-2.093,1.033-3.498,1.033
	c-1.707,0-3.035-0.555-3.991-1.661c-0.957-1.074-1.436-2.616-1.436-4.618c0-1.914,0.463-3.41,1.39-4.485
	c0.957-1.106,2.288-1.661,3.991-1.661c1.794,0,3.184,0.54,4.171,1.615c0.536,0.658,0.926,1.419,1.164,2.288h-3.138
	c-0.149-0.298-0.299-0.524-0.448-0.673c-0.391-0.417-0.941-0.627-1.661-0.627c-0.654,0-1.193,0.21-1.611,0.627
	c-0.54,0.597-0.808,1.584-0.808,2.961c0,1.375,0.268,2.348,0.808,2.913c0.386,0.478,0.968,0.72,1.749,0.72
	c0.505,0,0.942-0.104,1.297-0.313c0.092-0.03,0.172-0.084,0.249-0.156c0.073-0.077,0.157-0.157,0.245-0.249
	c0.062-0.088,0.18-0.207,0.36-0.355C31.947,16.498,32.215,16.421,32.575,16.421"/>
<path fill="#FFFFFF" d="M21.362,16.421h2.242c-0.329,1.255-0.957,2.212-1.883,2.87c-0.925,0.689-2.093,1.033-3.498,1.033
	c-1.707,0-3.035-0.555-3.992-1.661c-0.957-1.074-1.435-2.616-1.435-4.618c0-1.914,0.463-3.41,1.389-4.485
	c0.957-1.106,2.288-1.661,3.991-1.661c1.795,0,3.184,0.54,4.171,1.615c0.957,1.105,1.435,2.648,1.435,4.619c0,0.122,0,0.226,0,0.314
	c0,0.092,0,0.147,0,0.18c0,0.148-0.015,0.256-0.046,0.313h-7.757c0.03,0.931,0.252,1.615,0.673,2.063
	c0.386,0.478,0.968,0.72,1.749,0.72c0.505,0,0.941-0.104,1.297-0.313c0.092-0.03,0.172-0.084,0.249-0.156
	c0.073-0.077,0.157-0.157,0.245-0.249c0.03-0.088,0.142-0.207,0.336-0.355C20.727,16.498,21.002,16.421,21.362,16.421
	 M15.982,12.923h4.573c-0.062-0.807-0.268-1.404-0.628-1.795c-0.391-0.417-0.941-0.627-1.661-0.627c-0.654,0-1.194,0.21-1.611,0.627
	C16.234,11.549,16.012,12.146,15.982,12.923z"/>
<path fill="#FFFFFF" d="M12.438,20.1h-1.574c-0.453,0-0.818-0.143-1.105-0.426c-0.284-0.288-0.426-0.652-0.426-1.104v-6.118
	c0-0.722-0.215-1.244-0.653-1.574c-0.434-0.33-0.921-0.495-1.462-0.495c-0.538,0-1.018,0.165-1.44,0.495
	c-0.418,0.331-0.629,0.853-0.629,1.574V20.1H2v-7.018c0-2.039,0.534-3.406,1.597-4.096C4.66,8.298,5.839,7.923,7.129,7.861
	c1.321,0,2.534,0.345,3.643,1.037c1.11,0.691,1.666,2.084,1.666,4.185V20.1z"/>
<path fill="#FFFFFF" d="M113.145,20.1h-3.097v-6.997v-0.627c0-0.719-0.215-1.24-0.649-1.569c-0.435-0.329-0.92-0.493-1.459-0.493
	c-0.537,0-1.015,0.165-1.437,0.493c-0.417,0.33-0.627,0.85-0.627,1.569V20.1h-3.138v-6.997c0-2.032,0.531-3.395,1.592-4.083
	c1.061-0.685,2.234-1.06,3.521-1.122c0.688,0,1.357,0.077,2.018,0.226c0.656,0.15,1.254,0.448,1.794,0.896
	c0.446-0.387,0.979-0.662,1.592-0.827c0.613-0.165,1.248-0.264,1.905-0.295c1.316,0,2.525,0.345,3.633,1.034
	c1.105,0.689,1.66,2.078,1.66,4.171V20.1h-1.568c-0.447,0-0.814-0.143-1.099-0.426c-0.287-0.287-0.429-0.65-0.429-1.098v-6.101
	c0-0.719-0.215-1.24-0.65-1.569c-0.432-0.329-0.919-0.493-1.454-0.493c-0.539,0-1.026,0.165-1.458,0.493
	c-0.438,0.33-0.65,0.85-0.65,1.569v0.627V20.1L113.145,20.1z"/>
<path fill="#FFFFFF" d="M99.374,14.09c-0.42,0.207-1.002,0.402-1.749,0.582c-0.688,0.148-1.033,0.227-1.033,0.227
	c-0.535,0.148-0.926,0.341-1.166,0.582c-0.208,0.328-0.314,0.658-0.314,0.986c0,0.448,0.139,0.809,0.406,1.076
	c0.269,0.24,0.657,0.359,1.168,0.359c0.834,0,1.49-0.241,1.971-0.721c0.478-0.479,0.719-1.136,0.719-1.971L99.374,14.09
	L99.374,14.09z M100.09,19.604c-0.627,0.33-1.293,0.533-1.994,0.605c-0.703,0.076-1.324,0.114-1.863,0.114
	c-1.074,0-2.017-0.296-2.823-0.876c-0.808-0.581-1.21-1.547-1.21-2.895c0-1.255,0.363-2.15,1.099-2.69
	c0.731-0.54,1.665-0.896,2.802-1.075c0.149,0,0.33-0.023,0.541-0.069c0.209-0.042,0.446-0.081,0.715-0.111
	c1.315-0.181,1.975-0.566,1.975-1.167c0-0.448-0.232-0.738-0.696-0.873c-0.463-0.134-0.888-0.203-1.278-0.203
	c-0.416,0-0.791,0.062-1.121,0.18c-0.328,0.118-0.565,0.344-0.715,0.673h-3.004c0.117-0.93,0.534-1.691,1.254-2.288
	c0.809-0.689,1.961-1.034,3.453-1.034c1.676,0,2.932,0.287,3.769,0.854c0.866,0.597,1.298,1.436,1.298,2.511v4.083
	c0,1.194-0.214,2.129-0.65,2.803C101.204,18.82,100.688,19.307,100.09,19.604z"/>
<path fill="#FFFFFF" d="M88.882,1.365h1.522c0.416,0,0.775,0.157,1.074,0.471s0.447,0.666,0.447,1.052v12.01
	c0,2.119-0.611,3.556-1.836,4.306c-1.225,0.746-2.558,1.121-3.992,1.121c-0.775,0-1.537-0.13-2.287-0.384
	c-0.746-0.252-1.344-0.664-1.791-1.23c-0.869-1.105-1.302-2.618-1.302-4.531c0-1.883,0.433-3.395,1.302-4.527
	C82.915,8.486,84.066,7.9,85.471,7.9c0.745,0,1.404,0.153,1.975,0.452c0.598,0.355,1.076,0.822,1.437,1.389V1.365z M83.768,14.045
	c0,1.193,0.224,2.107,0.672,2.736c0.451,0.627,1.095,0.941,1.929,0.941c0.807,0,1.435-0.314,1.882-0.941
	c0.422-0.629,0.633-1.543,0.633-2.736c0-1.076-0.227-1.929-0.675-2.557c-0.478-0.597-1.12-0.896-1.929-0.896
	c-0.776,0-1.389,0.313-1.84,0.941C83.99,12.131,83.768,12.969,83.768,14.045z"/>
<path fill="#FFFFFF" d="M77.623,14.09c-0.422,0.207-1.003,0.402-1.749,0.582c-0.688,0.148-1.034,0.227-1.034,0.227
	c-0.535,0.148-0.926,0.341-1.167,0.582c-0.206,0.328-0.313,0.658-0.313,0.986c0,0.448,0.139,0.809,0.406,1.076
	c0.268,0.24,0.657,0.359,1.166,0.359c0.836,0,1.493-0.241,1.973-0.721c0.478-0.479,0.72-1.136,0.72-1.971L77.623,14.09L77.623,14.09
	z M78.338,19.604c-0.627,0.33-1.294,0.533-1.992,0.605c-0.705,0.076-1.324,0.114-1.865,0.114c-1.074,0-2.018-0.296-2.823-0.876
	c-0.808-0.581-1.209-1.547-1.209-2.895c0-1.255,0.364-2.15,1.099-2.69c0.73-0.54,1.664-0.896,2.801-1.075
	c0.148,0,0.33-0.023,0.539-0.069c0.211-0.042,0.448-0.081,0.717-0.111c1.315-0.181,1.976-0.566,1.976-1.167
	c0-0.448-0.233-0.738-0.697-0.873c-0.463-0.134-0.888-0.203-1.278-0.203c-0.416,0-0.791,0.062-1.121,0.18
	c-0.328,0.119-0.565,0.344-0.715,0.673h-3.004c0.117-0.93,0.535-1.691,1.256-2.288c0.807-0.689,1.959-1.034,3.451-1.034
	c1.676,0,2.932,0.287,3.77,0.854c0.863,0.597,1.298,1.436,1.298,2.511v4.083c0,1.194-0.215,2.129-0.651,2.803
	C79.451,18.82,78.936,19.307,78.338,19.604z"/>
<path fill="#FFFFFF" d="M61.971,25.479c0,0.416-0.148,0.775-0.448,1.074C61.224,26.852,60.864,27,60.443,27H58.92V13.325
	c0-2.089,0.612-3.517,1.837-4.282c1.229-0.762,2.556-1.145,3.992-1.145c0.75,0,1.504,0.146,2.267,0.429
	c0.76,0.283,1.369,0.692,1.817,1.232c0.896,1.167,1.343,2.66,1.343,4.485c0,1.883-0.447,3.409-1.343,4.572
	c-0.899,1.138-2.049,1.707-3.453,1.707c-0.749,0-1.407-0.138-1.974-0.405c-0.598-0.299-1.076-0.761-1.436-1.391V25.479
	L61.971,25.479z M67.083,14.179c0-1.167-0.228-2.063-0.673-2.69c-0.448-0.628-1.092-0.941-1.93-0.941
	c-0.809,0-1.437,0.313-1.883,0.941c-0.416,0.566-0.627,1.466-0.627,2.69c0,1.135,0.221,1.99,0.674,2.557
	c0.446,0.627,1.09,0.939,1.928,0.939c0.777,0,1.39-0.313,1.838-0.939C66.855,16.107,67.083,15.254,67.083,14.179z"/>
<path fill="#EDEDED" d="M120.398,25.975l0.054,0.863c-0.558,0.107-1.034,0.162-1.431,0.162c-1.055,0-1.883-0.211-2.481-0.634
	c-0.642-0.448-0.962-1.095-0.962-1.939c0-0.876,0.306-1.553,0.917-2.03c0.612-0.479,1.454-0.721,2.526-0.721
	c0.504,0,0.979,0.071,1.422,0.215l-0.09,0.87c-0.391-0.183-0.842-0.272-1.357-0.272c-0.637,0-1.146,0.175-1.529,0.527
	c-0.384,0.352-0.576,0.797-0.576,1.338c0,0.535,0.192,0.976,0.576,1.319c0.385,0.345,0.902,0.517,1.557,0.517
	C119.604,26.189,120.063,26.117,120.398,25.975 M113.843,26.912v-5.148h1.261v5.148H113.843z M107.962,26.912v-5.148h1.554
	l2.403,3.852v-3.852h1.206v5.148h-1.546l-2.412-3.852v3.852H107.962z M105.984,26.912v-5.148h1.259v5.148H105.984z M102.163,26.912
	v-5.148h1.259v4.338h2.438v0.812L102.163,26.912L102.163,26.912z M101.75,25.975l0.055,0.863C101.246,26.945,100.77,27,100.374,27
	c-1.056,0-1.883-0.211-2.481-0.634c-0.644-0.448-0.963-1.095-0.963-1.939c0-0.876,0.307-1.553,0.918-2.03
	c0.61-0.479,1.453-0.721,2.526-0.721c0.504,0,0.978,0.071,1.42,0.215l-0.09,0.87c-0.39-0.183-0.843-0.272-1.356-0.272
	c-0.637,0-1.146,0.175-1.529,0.527c-0.383,0.352-0.575,0.797-0.575,1.338c0,0.535,0.192,0.976,0.575,1.319
	c0.384,0.345,0.902,0.517,1.557,0.517C100.955,26.189,101.414,26.117,101.75,25.975z M90.807,26.912v-5.148h1.258v4.338h2.438v0.812
	L90.807,26.912L90.807,26.912z M84.23,26.912l2.447-5.148H88.1l2.463,5.148h-1.394l-0.539-1.18h-2.545l-0.549,1.18H84.23z
	 M88.279,24.92l-0.909-2.123h-0.019l-0.908,2.123H88.279z M81.589,26.912v-4.336H79.79v-0.813h4.856v0.813h-1.799v4.336H81.589z
	 M74.458,26.912v-5.148h1.554l2.402,3.852v-3.852h1.206v5.148h-1.546l-2.411-3.852v3.852H74.458z M70.087,26.912v-5.148h3.706v0.813
	h-2.445v1.268h2.238v0.813h-2.238v1.444h2.463v0.813h-3.724V26.912z M65.421,22.576V26.1h0.7c0.559,0,1.033-0.154,1.431-0.464
	c0.427-0.329,0.64-0.763,0.64-1.299c0-0.535-0.213-0.971-0.64-1.305c-0.396-0.306-0.872-0.457-1.431-0.457L65.421,22.576
	L65.421,22.576z M64.161,26.912v-5.148h1.718c2.417,0,3.625,0.858,3.625,2.574c0,1.717-1.208,2.574-3.625,2.574H64.161z"/>
<path fill="none" d="M49.955,12.803c0.156-0.43,0.275-0.869,0.359-1.31C50.226,11.914,50.103,12.353,49.955,12.803z"/>
<path fill="none" d="M55.338,12.322c0.01,0.034,0.018,0.067,0.028,0.101C55.356,12.389,55.348,12.356,55.338,12.322z"/>
<path fill="#FFFFFF" d="M58.319,12.509c-0.524-1.642-1.352-2.748-0.614-4.629c-1.257-0.239-2.016,0.072-2.409,0.725
	c-0.025,0.083-0.05,0.167-0.078,0.247C55.026,9.406,54.968,9.76,55,10.368c0.033,0.639,0.146,1.305,0.338,1.955
	c0.01,0.034,0.018,0.067,0.028,0.101c0.067,0.217,0.143,0.433,0.228,0.645c0.468,1.162,0.021,2.674-0.89,3.566
	c-0.869,0.85-0.961,0.276-0.943-0.511c0.105-4.586-2.173-4.586-2.068,0c0.018,0.787-0.074,1.358-0.942,0.511
	c-0.911-0.892-1.357-2.404-0.89-3.566c0.035-0.087,0.062-0.177,0.094-0.265c0.148-0.45,0.271-0.89,0.359-1.31
	c0.072-0.379,0.123-0.757,0.142-1.126c0.031-0.608-0.026-0.962-0.218-1.516c-0.022-0.065-0.042-0.134-0.063-0.201
	c-0.384-0.685-1.15-1.015-2.437-0.771c0.738,1.881-0.089,2.987-0.614,4.629c-0.922,2.884,0.755,5.692,3.297,6.968
	c1.177,0.59,2.231,0.813,3.488,0.44C57.043,18.986,59.37,15.796,58.319,12.509z"/>
<path opacity="0.5" fill="#EDEDED" enable-background="new    " d="M50.456,10.367c-0.019,0.369-0.07,0.747-0.142,1.126
	c-0.083,0.441-0.203,0.88-0.359,1.31c-0.032,0.088-0.059,0.178-0.094,0.265c-0.468,1.162-0.021,2.674,0.89,3.566
	c0.869,0.849,0.96,0.276,0.942-0.511c-0.105-4.586,2.174-4.586,2.068,0c-0.018,0.787,0.074,1.359,0.943,0.511
	c0.911-0.892,1.357-2.404,0.89-3.566c-0.085-0.212-0.161-0.428-0.228-0.645c-0.01-0.033-0.019-0.067-0.028-0.101
	c-0.192-0.65-0.305-1.316-0.338-1.955c-0.031-0.608,0.026-0.962,0.218-1.516c0.028-0.08,0.053-0.164,0.078-0.247
	c0.288-0.935,0.441-2.031,0.403-2.415c-0.083-0.82-0.399-1.308-0.811-1.419c-0.479-0.13-1.173-0.039-1.828,0.292
	C52.959,5.113,52.845,5,52.737,5h-0.002h-0.003h-0.004h-0.004h-0.003h-0.003c-0.107,0-0.222,0.113-0.322,0.063
	c-0.655-0.331-1.349-0.497-1.828-0.367c-0.411,0.111-0.727,0.636-0.81,1.457c-0.039,0.39,0.12,1.535,0.417,2.479
	c0.021,0.067,0.041,0.145,0.063,0.21C50.43,9.396,50.487,9.759,50.456,10.367z"/>
<text transform="matrix(1 0 0 1 2 6.1641)" fill="#EDEDED" font-family="'Harabara'" font-size="9.2372">Dr</text>
</svg>
